<?xml version="1.0" encoding="UTF-8" standalone="no"?>
<!-- Generator: Adobe Illustrator 15.0.0, SVG Export Plug-In . SVG Version: 6.00 Build 0)  -->

<svg
   xmlns:dc="http://purl.org/dc/elements/1.1/"
   xmlns:cc="http://creativecommons.org/ns#"
   xmlns:rdf="http://www.w3.org/1999/02/22-rdf-syntax-ns#"
   xmlns:svg="http://www.w3.org/2000/svg"
   xmlns="http://www.w3.org/2000/svg"
   xmlns:sodipodi="http://sodipodi.sourceforge.net/DTD/sodipodi-0.dtd"
   xmlns:inkscape="http://www.inkscape.org/namespaces/inkscape"
   version="1.1"
   id="Слой_1"
   x="0px"
   y="0px"
   width="50px"
   height="50px"
   viewBox="0 0 50 50"
   enable-background="new 0 0 50 50"
   xml:space="preserve"
   inkscape:version="0.47 r22583"
   sodipodi:docname="planka.svg"><metadata
   id="metadata32"><rdf:RDF><cc:Work
       rdf:about=""><dc:format>image/svg+xml</dc:format><dc:type
         rdf:resource="http://purl.org/dc/dcmitype/StillImage" /></cc:Work></rdf:RDF></metadata><defs
   id="defs30"><inkscape:perspective
     sodipodi:type="inkscape:persp3d"
     inkscape:vp_x="0 : 25 : 1"
     inkscape:vp_y="0 : 1000 : 0"
     inkscape:vp_z="50 : 25 : 1"
     inkscape:persp3d-origin="25 : 16.666667 : 1"
     id="perspective34" /></defs><sodipodi:namedview
   pagecolor="#ffffff"
   bordercolor="#666666"
   borderopacity="1"
   objecttolerance="10"
   gridtolerance="10"
   guidetolerance="10"
   inkscape:pageopacity="0"
   inkscape:pageshadow="2"
   inkscape:window-width="1366"
   inkscape:window-height="697"
   id="namedview28"
   showgrid="false"
   inkscape:zoom="4.8"
   inkscape:cx="25"
   inkscape:cy="25"
   inkscape:window-x="0"
   inkscape:window-y="24"
   inkscape:window-maximized="1"
   inkscape:current-layer="Слой_1" />
<path
   d="m 26.416667,36.916667 c -2.206,0 -4,-1.794 -4,-4 0,2.206 -1.794,4 -4,4 H 9.4166667 c -2.206,0 -4,-1.794 -4,-4 v -3 h -1 c -2.206,0 -4.00000003,-1.794 -4.00000003,-4 v -9 c 0,-2.205 1.79400003,-4 4.00000003,-4 H 46.416667 c 2.206,0 4,1.795 4,4 v 9 c 0,2.206 -1.794,4 -4,4 h -1 v 3 c 0,2.206 -1.794,4 -4,4 h -15 z"
   id="path3"
   style="opacity:0.4" />
<path
   d="M 46.416667,12.916667 H 4.4166667 c -1.657,0 -3,1.344 -3,3 v 10 c 0,1.657 1.343,3 3,3 h 2 v 4 c 0,1.657 1.343,3 3,3 h 9.0000003 c 1.657,0 3,-1.343 3,-3 v -4 h 2 v 4 c 0,1.657 1.343,3 3,3 h 15 c 1.657,0 3,-1.343 3,-3 v -4 h 2 c 1.657,0 3,-1.343 3,-3 v -10 c 0,-1.656 -1.343,-3 -3,-3 z"
   id="path5"
   style="opacity:0.5" />
<path
   d="m 9.4166667,34.916667 c -1.103,0 -2,-0.897 -2,-2 v -5 c 0,-1.103 0.897,-2 2,-2 h 9.0000003 c 1.103,0 2,0.897 2,2 v 5 c 0,1.103 -0.897,2 -2,2 H 9.4166667 z"
   id="path7"
   style="fill:#ffff76" />
<path
   d="m 26.416667,34.916667 c -1.103,0 -2,-0.897 -2,-2 v -5 c 0,-1.103 0.897,-2 2,-2 h 15 c 1.103,0 2,0.897 2,2 v 5 c 0,1.103 -0.897,2 -2,2 h -15 z"
   id="path9"
   style="fill:#ffff76" />
<path
   d="m 4.4166667,27.916667 c -1.103,0 -2,-0.897 -2,-2 v -10 c 0,-1.104 0.897,-2 2,-2 H 46.416667 c 1.103,0 2,0.896 2,2 v 10 c 0,1.103 -0.897,2 -2,2 H 4.4166667 z"
   id="path11"
   style="fill:#097013" />
<path
   d="m 27.416667,34.874667 h -1 v -6.958 h 1 v 6.958 z m 3,-6.958 h -1 v 6.958 h 1 v -6.958 z m 3,0 h -1 v 6.958 h 1 v -6.958 z m 3,0 h -1 v 6.958 h 1 v -6.958 z m 3,0 h -1 v 6.958 h 1 v -6.958 z m 3,0 h -1 v 6.958 h 1 v -6.958 z m -24,0 h -1 v 6.958 h 1 v -6.958 z m -3,0 h -1 v 6.958 h 1 v -6.958 z m -3,0 h -1 v 6.958 h 1 v -6.958 z m -3.0000003,0 h -1 v 6.958 h 1 v -6.958 z"
   id="path13" />
<path
   d="m 42.416667,20.416667 c 0,1.933 -1.567,3.5 -3.5,3.5 -1.933,0 -3.5,-1.567 -3.5,-3.5 0,-1.933 1.567,-3.5 3.5,-3.5 1.933,0 3.5,1.567 3.5,3.5 z m -13.5,-3.5 c -1.934,0 -3.5,1.567 -3.5,3.5 0,1.933 1.566,3.5 3.5,3.5 1.934,0 3.5,-1.567 3.5,-3.5 0,-1.933 -1.566,-3.5 -3.5,-3.5 z m -10,0 c -1.933,0 -3.5,1.567 -3.5,3.5 0,1.933 1.567,3.5 3.5,3.5 1.933,0 3.5,-1.567 3.5,-3.5 0,-1.933 -1.567,-3.5 -3.5,-3.5 z m -10.0000003,0 c -1.933,0 -3.5,1.567 -3.5,3.5 0,1.933 1.567,3.5 3.5,3.5 1.9330003,0 3.5000003,-1.567 3.5000003,-3.5 0,-1.933 -1.567,-3.5 -3.5000003,-3.5 z"
   id="path15"
   style="opacity:0.6" />
<circle
   cx="28.5"
   cy="32.5"
   r="2.5"
   id="circle17"
   sodipodi:cx="28.5"
   sodipodi:cy="32.5"
   sodipodi:rx="2.5"
   sodipodi:ry="2.5"
   transform="translate(-9.5833333,-12.083333)"
   style="fill:#46ed2e" />
<circle
   cx="38.5"
   cy="32.5"
   r="2.5"
   id="circle19"
   sodipodi:cx="38.5"
   sodipodi:cy="32.5"
   sodipodi:rx="2.5"
   sodipodi:ry="2.5"
   transform="translate(-29.583333,-12.083333)"
   style="fill:#ff2e2e" />
<radialGradient
   id="SVGID_1_"
   cx="9.417"
   cy="28.916"
   r="28.8983"
   gradientTransform="matrix(0.9002,-0.4354,0.2633,0.5443,-6.6731,5.1923663)"
   gradientUnits="userSpaceOnUse">
	<stop
   offset="0.0848"
   style="stop-color:#FFFFFF;stop-opacity:0.7"
   id="stop22" />
	<stop
   offset="1"
   style="stop-color:#FFFFFF;stop-opacity:0"
   id="stop24" />
</radialGradient>
<path
   d="m 38,14.916667 c 3.933,0 7.658,0.76 11,2.112 v -1.112 c 0,-1.656 -1.343,-3 -3,-3 H 4 c -1.657,0 -3,1.344 -3,3 v 10 c 0,1.657 1.343,3 3,3 h 2 v 4 c 0,1.657 1.343,3 3,3 h 3.064 c 0.893,-11.727 12.16,-21 25.936,-21 z"
   id="path26"
   style="fill:url(#SVGID_1_)" />
</svg>