<?xml version="1.0" encoding="UTF-8" standalone="no"?>
<svg
   xmlns:dc="http://purl.org/dc/elements/1.1/"
   xmlns:cc="http://creativecommons.org/ns#"
   xmlns:rdf="http://www.w3.org/1999/02/22-rdf-syntax-ns#"
   xmlns:svg="http://www.w3.org/2000/svg"
   xmlns="http://www.w3.org/2000/svg"
   xmlns:sodipodi="http://sodipodi.sourceforge.net/DTD/sodipodi-0.dtd"
   xmlns:inkscape="http://www.inkscape.org/namespaces/inkscape"
   width="180pt"
   height="180pt"
   viewBox="0 0 180 180"
   version="1.1"
   id="svg2"
   inkscape:version="0.48.2 r9819"
   sodipodi:docname="mus.svg">
  <metadata
     id="metadata78">
    <rdf:RDF>
      <cc:Work
         rdf:about="">
        <dc:format>image/svg+xml</dc:format>
        <dc:type
           rdf:resource="http://purl.org/dc/dcmitype/StillImage" />
      </cc:Work>
    </rdf:RDF>
  </metadata>
  <defs
     id="defs76" />
  <sodipodi:namedview
     pagecolor="#ffffff"
     bordercolor="#666666"
     borderopacity="1"
     objecttolerance="10"
     gridtolerance="10"
     guidetolerance="10"
     inkscape:pageopacity="0"
     inkscape:pageshadow="2"
     inkscape:window-width="1366"
     inkscape:window-height="690"
     id="namedview74"
     showgrid="false"
     inkscape:zoom="2.0977778"
     inkscape:cx="141.4047"
     inkscape:cy="126.56969"
     inkscape:window-x="0"
     inkscape:window-y="28"
     inkscape:window-maximized="1"
     inkscape:current-layer="svg2" />
  <path
     d=" M 0.00 0.00 L 50.58 0.00 C 39.58 5.22 29.50 12.29 20.73 20.72 C 12.02 29.27 5.33 39.67 0.00 50.59 L 0.00 0.00 Z"
     id="path4"
     fill="#d4d4d4"
     style="opacity:0" />
  <path
     d=" M 50.58 0.00 L 130.43 0.00 C 141.12 5.28 151.03 12.12 159.74 20.27 C 168.28 28.24 174.54 38.29 180.00 48.53 L 180.00 132.25 C 174.09 144.20 166.30 155.42 156.10 164.10 C 148.88 170.30 141.03 175.84 132.46 180.00 L 48.75 180.00 C 27.26 169.91 10.04 151.83 0.00 130.42 L 0.00 50.59 C 5.33 39.67 12.02 29.27 20.73 20.72 C 29.50 12.29 39.58 5.22 50.58 0.00 Z"
     id="path6"
     fill="#dbdbdb"
     style="opacity:0" />
  <path
     fill="#d4d4d4"
     d=" M 130.43 0.00 L 180.00 0.00 L 180.00 48.53 C 174.54 38.29 168.28 28.24 159.74 20.27 C 151.03 12.12 141.12 5.28 130.43 0.00 Z"
     id="path8"
     style="opacity:0" />
  <path
     d=" M 81.31 12.14 C 90.53 11.27 99.76 12.48 108.99 12.63 C 120.21 13.79 131.59 15.84 141.54 21.44 C 155.11 28.11 163.53 42.14 166.74 56.53 C 170.26 73.07 170.67 90.17 169.28 106.99 C 168.45 119.74 165.45 132.65 158.54 143.54 C 153.60 150.57 146.95 156.58 139.03 160.04 C 121.61 168.24 101.88 168.41 83.02 168.11 C 65.43 167.86 46.80 165.35 32.14 154.85 C 19.37 145.34 13.39 129.49 11.45 114.17 C 9.24 95.03 9.15 75.42 13.33 56.53 C 16.32 42.62 24.32 29.04 37.15 22.18 C 50.48 14.43 66.16 12.50 81.31 12.14 Z"
     fill="#3c3f45"
     id="path10" />
  <path
     fill="#4c4f56"
     d=" M 58.73 48.50 C 76.46 47.44 94.25 47.96 112.00 48.09 C 119.41 48.32 126.84 47.84 134.24 48.49 C 117.83 48.94 101.41 48.79 84.99 48.94 C 76.24 48.85 67.47 49.06 58.73 48.50 Z"
     id="path12" />
  <path
     fill="#4d5158"
     d=" M 62.72 52.51 C 75.46 51.73 88.24 52.27 101.00 52.09 C 110.74 52.41 120.50 51.95 130.23 52.54 C 110.83 53.14 91.41 52.82 72.00 52.96 C 68.90 52.96 65.81 52.79 62.72 52.51 Z"
     id="path16" />
  <path
     fill="#4e5259"
     d=" M 55.73 54.44 C 80.08 53.59 104.47 54.35 128.84 54.17 L 128.81 54.87 C 118.79 54.63 108.78 54.96 98.76 55.13 C 97.56 55.08 96.35 55.06 95.14 55.07 C 91.83 55.08 88.51 55.09 85.20 55.24 C 75.38 54.81 65.51 55.54 55.73 54.44 Z"
     id="path18" />
  <path
     fill="#23282a"
     d=" M 85.20 55.24 C 88.51 55.09 91.83 55.08 95.14 55.07 C 92.73 55.81 90.14 56.54 88.31 58.37 C 86.36 60.62 87.85 64.48 90.51 65.43 C 96.30 67.79 103.09 67.81 108.11 71.91 C 118.34 79.60 121.44 94.99 114.84 105.98 C 113.57 107.87 111.72 109.24 109.91 110.58 C 114.12 105.10 117.32 98.39 116.61 91.32 C 115.88 81.21 108.41 71.96 98.60 69.32 C 90.26 66.84 80.74 69.48 74.70 75.69 C 69.30 80.95 66.65 88.79 67.52 96.25 C 68.17 101.57 70.94 106.34 74.09 110.56 C 71.92 108.90 69.69 107.11 68.48 104.59 C 66.37 100.14 66.37 95.04 64.46 90.52 C 63.26 87.50 58.64 87.24 56.72 89.65 C 55.28 91.54 54.67 93.89 54.09 96.15 C 53.94 92.09 54.14 88.00 54.93 84.00 C 55.14 83.01 55.42 82.03 55.78 81.08 C 56.97 77.93 58.42 74.89 60.20 72.04 C 65.99 63.46 75.22 57.66 85.20 55.24 Z"
     id="path20" />
  <path
     fill="#324528"
     d=" M 95.14 55.07 C 96.35 55.06 97.56 55.08 98.76 55.13 C 99.81 55.36 100.84 55.66 101.85 56.03 C 105.69 57.38 109.41 59.06 113.03 60.90 C 120.24 66.64 126.29 74.13 128.80 83.13 C 133.80 101.03 123.65 121.67 106.15 128.16 C 91.11 134.59 72.35 129.51 62.34 116.66 C 57.71 110.81 54.76 103.58 54.09 96.15 C 54.67 93.89 55.28 91.54 56.72 89.65 C 58.64 87.24 63.26 87.50 64.46 90.52 C 66.37 95.04 66.37 100.14 68.48 104.59 C 69.69 107.11 71.92 108.90 74.09 110.56 C 79.29 114.51 85.41 117.84 92.13 117.62 C 98.78 117.85 104.72 114.36 109.91 110.58 C 111.72 109.24 113.57 107.87 114.84 105.98 C 121.44 94.99 118.34 79.60 108.11 71.91 C 103.09 67.81 96.30 67.79 90.51 65.43 C 87.85 64.48 86.36 60.62 88.31 58.37 C 90.14 56.54 92.73 55.81 95.14 55.07 Z"
     id="path22" />
  <path
     fill="#525754"
     d=" M 101.85 56.03 C 113.64 56.40 125.43 56.08 137.21 56.45 C 127.88 57.05 118.52 56.82 109.17 57.05 L 109.14 57.99 C 124.81 58.20 140.49 58.23 156.16 58.47 C 142.35 59.21 128.45 58.04 114.67 59.46 C 128.43 61.07 142.34 59.81 156.16 60.47 C 147.78 61.00 139.38 60.49 131.00 60.80 C 125.01 60.74 119.01 61.44 113.03 60.90 C 109.41 59.06 105.69 57.38 101.85 56.03 Z"
     id="path24" />
  <path
     fill="#78c92f"
     d=" M 90.37 63.64 C 87.86 62.69 88.43 58.31 91.16 57.98 C 96.41 56.99 101.77 58.55 106.61 60.55 C 121.53 66.79 131.08 84.71 126.17 100.43 C 126.15 99.67 126.10 98.16 126.08 97.40 C 126.13 90.56 126.29 83.28 122.50 77.26 C 116.55 65.49 103.41 57.87 90.20 58.98 C 90.13 60.15 90.07 61.32 90.01 62.49 C 90.47 62.51 91.39 62.54 91.86 62.56 C 97.30 63.39 102.83 64.58 107.61 67.43 C 111.28 69.59 114.26 72.68 117.02 75.87 C 117.13 76.41 117.33 77.47 117.44 78.01 C 113.29 74.70 110.16 70.12 105.28 67.77 C 100.70 65.15 95.27 65.25 90.37 63.64 Z"
     id="path26" />
  <path
     fill="#feffd2"
     d=" M 90.20 58.98 C 103.41 57.87 116.55 65.49 122.50 77.26 C 117.18 73.31 112.99 67.78 106.72 65.22 C 102.14 62.84 96.93 62.34 91.86 62.56 C 91.39 62.54 90.47 62.51 90.01 62.49 C 90.07 61.32 90.13 60.15 90.20 58.98 Z"
     id="path28" />
  <path
     fill="#cbfd89"
     d=" M 91.86 62.56 C 96.93 62.34 102.14 62.84 106.72 65.22 C 112.99 67.78 117.18 73.31 122.50 77.26 C 126.29 83.28 126.13 90.56 126.08 97.40 C 125.07 89.59 123.42 81.17 117.02 75.87 C 114.26 72.68 111.28 69.59 107.61 67.43 C 102.83 64.58 97.30 63.39 91.86 62.56 Z"
     id="path30" />
  <path
     fill="#525754"
     d=" M 74.70 75.69 C 80.74 69.48 90.26 66.84 98.60 69.32 C 108.41 71.96 115.88 81.21 116.61 91.32 C 117.32 98.39 114.12 105.10 109.91 110.58 C 104.72 114.36 98.78 117.85 92.13 117.62 C 85.41 117.84 79.29 114.51 74.09 110.56 C 70.94 106.34 68.17 101.57 67.52 96.25 C 66.65 88.79 69.30 80.95 74.70 75.69 Z"
     id="path32" />
  <path
     fill="#4b4f56"
     d=" M 27.82 72.54 C 38.60 71.96 49.41 71.69 60.20 72.04 C 58.42 74.89 56.97 77.93 55.78 81.08 C 48.09 81.24 40.37 81.28 32.71 80.55 C 40.16 79.50 47.72 80.33 55.19 79.45 C 46.73 78.75 38.23 79.24 29.79 78.48 C 38.58 77.76 47.42 78.16 56.22 77.55 C 43.45 76.60 30.61 77.01 17.82 76.53 C 30.94 75.96 44.10 76.45 57.21 75.52 C 47.09 74.59 36.91 75.24 26.78 74.54 C 37.23 73.82 47.72 74.30 58.17 73.54 C 48.08 72.69 37.93 73.11 27.82 72.54 Z"
     id="path34" />
  <path
     fill="#a5e968"
     d=" M 117.02 75.87 C 123.42 81.17 125.07 89.59 126.08 97.40 C 126.10 98.16 126.15 99.67 126.17 100.43 C 125.06 105.97 122.34 111.19 118.31 115.16 C 120.13 109.17 122.17 103.05 121.70 96.69 C 121.70 92.66 121.25 88.58 119.81 84.80 C 118.98 82.55 117.85 80.39 117.44 78.01 C 117.33 77.47 117.13 76.41 117.02 75.87 Z"
     id="path36" />
  <path
     fill="#49504b"
     d=" M 128.57 82.11 C 135.47 81.57 142.40 81.82 149.28 82.38 C 146.47 82.81 143.67 83.24 140.85 83.64 C 145.98 83.86 151.10 84.18 156.22 84.36 C 153.07 84.75 149.91 85.15 146.77 85.59 C 151.23 85.99 155.69 86.34 160.17 86.41 C 156.69 86.68 153.22 87.05 149.77 87.55 C 152.57 87.90 155.37 88.19 158.17 88.48 C 156.33 88.67 154.49 88.87 152.65 89.06 C 152.74 89.97 152.83 90.88 152.93 91.79 C 153.51 92.03 154.09 92.27 154.68 92.51 C 153.76 92.95 152.83 93.39 151.91 93.83 C 154.00 94.04 156.10 94.25 158.19 94.46 C 155.76 94.72 153.33 94.99 150.90 95.27 C 152.29 95.79 153.68 96.31 155.08 96.83 C 152.76 96.93 150.44 97.04 148.12 97.15 C 149.07 97.73 150.02 98.32 150.97 98.91 C 144.40 99.22 137.82 99.23 131.25 99.10 L 131.20 99.90 C 136.58 99.68 142.02 99.43 147.33 100.56 C 141.51 101.31 135.63 100.97 129.79 101.47 C 139.22 102.55 148.74 101.57 158.18 102.51 C 148.74 103.21 139.26 102.71 129.82 103.43 C 133.68 103.56 137.50 104.12 141.33 104.53 C 137.48 104.89 133.64 105.23 129.79 105.56 C 137.58 106.37 145.44 105.59 153.22 106.55 C 145.10 107.37 136.91 106.51 128.80 107.56 C 140.24 108.47 151.73 107.78 163.17 108.53 C 151.40 109.19 139.57 108.51 127.81 109.53 C 134.62 110.13 141.47 109.72 148.26 110.45 C 141.47 111.38 134.60 110.71 127.79 111.44 C 130.64 111.79 133.49 112.13 136.34 112.50 C 132.84 112.92 129.33 113.33 125.82 113.63 C 131.32 113.88 136.86 113.74 142.33 114.58 C 136.51 115.26 130.62 114.83 124.81 115.57 C 132.93 116.42 141.13 115.40 149.24 116.53 C 140.76 117.39 132.22 116.47 123.76 117.55 C 134.23 118.38 144.75 117.83 155.23 118.47 C 144.11 119.44 132.91 118.38 121.81 119.54 C 129.94 120.34 138.13 119.62 146.26 120.46 C 137.48 121.63 128.59 120.48 119.81 121.57 C 129.59 122.36 139.42 121.68 149.21 122.39 C 138.78 123.61 128.25 122.48 117.81 123.55 C 127.27 124.49 136.81 123.38 146.26 124.55 C 136.13 125.58 125.92 124.36 115.80 125.55 C 126.59 126.37 137.44 125.57 148.23 126.51 C 136.43 127.39 124.57 126.50 112.78 127.54 C 125.75 128.21 138.76 128.13 151.74 128.16 L 151.80 128.79 C 137.46 128.97 123.10 128.75 108.79 129.57 C 123.24 130.36 137.74 129.74 152.19 130.51 C 135.73 131.36 119.22 130.46 102.78 131.58 C 117.24 132.29 131.74 131.67 146.20 132.46 C 131.56 133.31 116.88 132.98 102.22 133.10 L 102.22 133.85 C 113.89 134.12 125.60 133.52 137.24 134.54 C 131.50 135.03 125.75 134.95 120.00 134.98 C 92.93 135.02 65.84 135.39 38.79 134.51 C 59.59 133.42 80.45 134.30 101.26 133.48 C 86.05 132.88 70.79 133.66 55.61 132.59 C 63.73 131.02 72.02 132.40 80.20 131.58 C 66.41 130.56 52.54 131.60 38.76 130.48 C 51.20 129.45 63.72 130.49 76.16 129.48 C 63.38 128.60 50.53 129.52 37.76 128.44 C 49.21 127.48 60.72 128.35 72.17 127.55 C 59.40 126.54 46.55 127.59 33.78 126.46 C 45.23 125.62 56.74 126.41 68.20 125.56 C 56.43 124.53 44.58 125.48 32.79 124.53 C 43.90 123.55 55.06 124.31 66.18 123.55 C 55.73 122.61 45.20 123.50 34.76 122.47 C 44.54 121.62 54.38 122.25 64.18 121.55 C 56.38 120.59 48.48 121.71 40.71 120.41 C 47.84 119.59 55.03 120.18 62.18 119.54 C 51.42 118.41 40.57 119.59 29.81 118.45 C 39.92 117.64 50.09 118.31 60.21 117.56 C 53.40 116.72 46.48 117.75 39.72 116.42 C 46.18 115.61 52.70 116.11 59.17 115.57 C 49.08 114.53 38.90 115.52 28.81 114.48 C 38.58 113.55 48.41 114.35 58.18 113.54 C 47.42 112.58 36.59 113.39 25.82 112.52 C 36.25 111.63 46.75 112.26 57.20 111.54 C 48.05 110.67 38.85 111.54 29.72 110.52 C 38.51 109.42 47.38 110.43 56.18 109.47 C 45.74 108.64 35.23 109.43 24.79 108.48 C 32.13 107.95 39.49 108.10 46.84 107.88 L 46.81 107.05 C 38.14 106.93 29.47 107.01 20.81 106.53 C 31.91 105.55 43.09 106.58 54.17 105.48 C 43.40 104.65 32.57 105.31 21.80 104.47 C 32.59 103.72 43.42 104.39 54.20 103.45 C 47.71 102.91 41.17 103.57 34.72 102.53 C 37.55 102.15 40.39 101.80 43.23 101.45 C 35.11 100.41 26.93 101.13 18.79 100.53 C 27.44 100.07 36.11 99.97 44.77 99.78 L 44.81 99.22 C 40.18 99.27 35.55 99.16 30.93 98.83 C 32.28 98.29 33.64 97.75 34.99 97.22 C 31.59 97.05 28.19 96.87 24.79 96.67 C 27.25 96.24 29.72 95.81 32.19 95.38 C 29.73 95.10 27.28 94.82 24.83 94.54 C 26.80 94.27 28.77 94.02 30.74 93.77 L 30.80 93.13 C 28.47 92.95 26.15 92.79 23.82 92.62 C 26.11 92.19 28.43 92.00 30.73 91.64 C 26.56 90.51 22.12 90.74 17.82 90.50 C 22.28 90.38 26.73 90.11 31.16 89.64 C 29.06 89.23 26.96 88.83 24.85 88.43 C 27.30 88.13 29.74 87.83 32.18 87.52 C 29.39 87.13 26.60 86.75 23.81 86.37 C 27.45 86.19 31.08 86.04 34.72 85.90 C 34.22 85.27 33.71 84.64 33.21 84.00 C 40.44 83.62 47.70 83.45 54.93 84.00 C 54.14 88.00 53.94 92.09 54.09 96.15 C 54.76 103.58 57.71 110.81 62.34 116.66 C 72.35 129.51 91.11 134.59 106.15 128.16 C 123.65 121.67 133.80 101.03 128.80 83.13 L 128.57 82.11 Z"
     id="path38" />
  <path
     fill="#70c12a"
     d=" M 87.00 84.46 C 91.29 86.02 95.46 88.06 99.02 90.96 C 99.90 91.79 101.17 92.57 101.26 93.91 C 97.51 98.16 92.31 100.86 86.99 102.58 C 86.42 96.55 86.43 90.48 87.00 84.46 Z"
     id="path40" />
  <path
     fill="#7cc936"
     d=" M 119.81 84.80 C 121.25 88.58 121.70 92.66 121.70 96.69 C 120.83 99.76 119.87 102.79 118.89 105.82 C 113.25 115.56 102.50 122.37 91.07 121.86 C 80.26 121.66 70.49 114.97 65.08 105.83 C 63.84 101.89 63.08 97.82 62.25 93.78 C 61.96 92.41 61.62 91.05 61.24 89.71 C 64.27 92.40 63.69 96.80 64.82 100.35 C 68.24 112.78 81.19 121.57 94.01 120.40 C 105.26 119.83 115.49 111.74 119.03 101.13 C 120.73 95.85 120.37 90.23 119.81 84.80 Z"
     id="path42" />
  <path
     fill="#6fbf29"
     d=" M 32.18 91.08 C 34.62 85.74 41.13 85.88 46.13 85.98 C 46.34 89.71 46.35 93.45 46.25 97.18 C 42.65 97.27 38.56 98.03 35.49 95.63 C 34.26 94.52 32.37 93.72 31.98 91.98 L 32.43 91.89 C 36.03 94.73 40.60 95.31 45.00 95.71 C 45.00 92.94 45.00 90.17 45.00 87.41 C 40.73 88.02 36.25 88.36 32.72 91.16 L 32.18 91.08 Z"
     id="path44" />
  <path
     fill="#292b2e"
     d=" M 88.03 85.94 C 92.10 88.42 96.13 90.96 100.18 93.47 C 96.26 96.23 92.19 98.78 88.04 101.18 C 87.98 96.10 87.99 91.02 88.03 85.94 Z"
     id="path46" />
  <path
     fill="#6ebd2a"
     d=" M 136.95 86.07 C 141.84 85.86 147.61 85.91 150.70 90.43 C 152.30 92.21 149.78 93.57 148.66 94.74 C 145.68 97.43 141.38 97.89 137.58 97.10 C 135.84 93.78 136.95 89.69 136.95 86.07 Z"
     id="path48" />
  <path
     fill="#212326"
     d=" M 32.72 91.16 C 36.25 88.36 40.73 88.02 45.00 87.41 C 45.00 90.17 45.00 92.94 45.00 95.71 C 40.60 95.31 36.03 94.73 32.43 91.89 L 32.72 91.16 Z"
     id="path50" />
  <path
     fill="#212325"
     d=" M 138.02 86.85 C 139.63 87.83 141.22 88.84 142.81 89.84 C 142.92 89.10 143.15 87.60 143.26 86.86 C 145.62 88.43 147.97 90.02 150.28 91.67 C 148.05 93.15 145.81 94.63 143.56 96.10 C 143.25 95.49 142.61 94.28 142.30 93.67 C 140.89 94.54 139.48 95.40 138.05 96.25 C 138.01 93.11 138.00 89.98 138.02 86.85 Z"
     id="path52" />
  <path
     fill="#78d227"
     d=" M 57.63 100.25 C 56.62 96.63 55.87 92.45 58.52 89.32 C 58.31 91.25 58.11 93.18 57.93 95.12 C 57.89 95.59 57.80 96.53 57.76 97.00 C 57.73 97.81 57.66 99.43 57.63 100.25 Z"
     id="path54" />
  <path
     fill="#ecfdb5"
     d=" M 58.52 89.32 C 59.20 89.42 60.56 89.61 61.24 89.71 C 61.62 91.05 61.96 92.41 62.25 93.78 C 60.81 94.21 59.36 94.64 57.93 95.12 C 58.11 93.18 58.31 91.25 58.52 89.32 Z"
     id="path56" />
  <path
     fill="#abf766"
     d=" M 57.93 95.12 C 59.36 94.64 60.81 94.21 62.25 93.78 C 63.08 97.82 63.84 101.89 65.08 105.83 C 68.24 119.28 83.61 127.12 96.66 124.86 C 106.68 123.13 116.64 116.21 118.89 105.82 C 119.87 102.79 120.83 99.76 121.70 96.69 C 122.17 103.05 120.13 109.17 118.31 115.16 C 117.26 117.28 115.14 118.59 113.32 120.00 C 108.18 123.50 102.34 126.47 96.01 126.71 C 90.27 126.92 84.29 127.05 78.95 124.59 C 74.06 122.32 68.64 119.88 65.67 115.15 C 63.81 108.94 62.18 102.65 60.78 96.32 C 59.77 96.55 58.77 96.77 57.76 97.00 C 57.80 96.53 57.89 95.59 57.93 95.12 Z"
     id="path58" />
  <path
     fill="#a4e868"
     d=" M 57.76 97.00 C 58.77 96.77 59.77 96.55 60.78 96.32 C 62.18 102.65 63.81 108.94 65.67 115.15 C 61.58 111.11 58.97 105.79 57.63 100.25 C 57.66 99.43 57.73 97.81 57.76 97.00 Z"
     id="path60" />
  <path
     fill="#fdffcd"
     d=" M 65.08 105.83 C 70.49 114.97 80.26 121.66 91.07 121.86 C 102.50 122.37 113.25 115.56 118.89 105.82 C 116.64 116.21 106.68 123.13 96.66 124.86 C 83.61 127.12 68.24 119.28 65.08 105.83 Z"
     id="path62" />
  <path
     fill="#d4d4d4"
     d=" M 0.00 130.42 C 10.04 151.83 27.26 169.91 48.75 180.00 L 0.00 180.00 L 0.00 130.42 Z"
     id="path64"
     style="opacity:0" />
  <path
     fill="#d4d4d4"
     d=" M 156.10 164.10 C 166.30 155.42 174.09 144.20 180.00 132.25 L 180.00 180.00 L 132.46 180.00 C 141.03 175.84 148.88 170.30 156.10 164.10 Z"
     id="path66"
     style="opacity:0" />
  <path
     fill="#525754"
     d=" M 44.83 136.45 C 75.22 136.07 105.62 136.30 136.02 136.33 C 141.40 136.29 146.78 136.15 152.16 136.53 C 116.39 136.75 80.59 137.46 44.83 136.45 Z"
     id="path68" />
  <path
     fill="#525754"
     d=" M 46.82 138.47 C 75.61 137.91 104.41 137.97 133.20 138.47 C 112.81 139.16 92.41 138.67 72.01 138.86 C 63.61 138.60 55.21 138.98 46.82 138.47 Z"
     id="path70" />
  <path
     fill="#525754"
     d=" M 46.21 140.18 C 73.21 140.43 100.22 139.71 127.21 140.47 C 100.24 141.32 73.24 140.51 46.26 140.83 L 46.21 140.18 Z"
     id="path72" />
</svg>
