<?xml version="1.0" encoding="utf-8"?>
<!-- Generator: Adobe Illustrator 15.0.0, SVG Export Plug-In . SVG Version: 6.00 Build 0)  -->
<!DOCTYPE svg PUBLIC "-//W3C//DTD SVG 1.1//EN" "http://www.w3.org/Graphics/SVG/1.1/DTD/svg11.dtd">
<svg version="1.1" id="Слой_1" xmlns="http://www.w3.org/2000/svg" xmlns:xlink="http://www.w3.org/1999/xlink" x="0px" y="0px"
	 width="96px" height="96px" viewBox="0 0 96 96" enable-background="new 0 0 96 96" xml:space="preserve">
<path display="none" fill-opacity="0.4" d="M88,49c0,29.633-10.363,40-40,40C18.365,89,8,78.633,8,49C8,19.365,18.365,9,48,9
	C77.637,9,88,19.365,88,49z"/>
<linearGradient id="SVGID_1_" gradientUnits="userSpaceOnUse" x1="379.0791" y1="-2499.0469" x2="379.0791" y2="-2418.3535" gradientTransform="matrix(1 0 0 -1 -331.0781 -2411.5918)">
	<stop  offset="0" style="stop-color:#003C9C"/>
	<stop  offset="0.9909" style="stop-color:#0074CD"/>
</linearGradient>
<path fill="url(#SVGID_1_)" d="M88,48c0,29.633-10.363,40-40,40C18.365,88,8,77.633,8,48C8,18.365,18.365,8,48,8
	C77.637,8,88,18.365,88,48z"/>
<linearGradient id="SVGID_2_" gradientUnits="userSpaceOnUse" x1="379.0781" y1="-2420.1367" x2="379.0781" y2="-2500.832" gradientTransform="matrix(1 0 0 -1 -331.0781 -2411.5918)">
	<stop  offset="0" style="stop-color:#FFFFFF"/>
	<stop  offset="1" style="stop-color:#FFFFFF;stop-opacity:0"/>
</linearGradient>
<path fill="url(#SVGID_2_)" fill-opacity="0.25" d="M48,8C18.365,8,8,18.365,8,48c0,29.633,10.365,40,40,40
	c29.637,0,40-10.367,40-40C88,18.365,77.637,8,48,8z M48,87C18.84,87,9,77.158,9,48S18.84,9,48,9c29.158,0,39,9.842,39,39
	S77.158,87,48,87z"/>
<rect fill="none" width="96" height="96"/>
<g id="Layer_2">
</g>
<g id="Layer_2_1_">
	<polygon fill="#070707" points="58.125,55.25 56.5,68.25 58.125,68.688 59.938,68.688 61.688,67.938 62.938,66.563 64.125,65.125 
		64.438,64.063 65.688,64.313 69.438,51.688 71.688,51 69.938,46.438 69.688,44.188 69.375,41.438 69.188,39.438 68.688,37.438 
		67.625,35.188 66.25,32.75 64.938,30.875 63.313,29.313 61.438,27.625 58.563,25.813 55.188,24.375 52.438,23.875 46.375,23.875 
		43.688,24.313 41.125,25.188 39.25,26.063 37.125,27.375 35.188,29.063 33.688,30.75 32.313,32.375 31.125,34.313 30.063,36.438 
		29.313,38.688 28.75,40.688 28.438,41.813 28.438,43.625 28.438,45.313 28.438,45.938 26.313,50.938 28.5,51.5 32.438,64.375 
		33.938,64.063 34.063,65.313 35.125,66.625 37,68.125 39.25,68.688 41.375,68.375 40.25,55.125 39.25,55.125 37.813,55.375 
		36.563,55.938 35.438,56.75 34.563,57.688 33.938,58.563 33.688,59.438 33.25,59.438 30.938,51.313 32.688,47 32.563,45.25 
		32.688,43.625 32.938,41.875 33.5,40.063 34.063,38.5 34.75,37 35.563,35.375 36.938,33.438 38.625,32 40.313,30.813 
		42.813,29.313 44.938,28.5 52.688,28.313 55.063,29.188 57.75,30.563 59.813,32.25 61.875,34.625 63.25,36.813 64.5,39.625 
		64.938,41.188 65.188,42.938 65.188,44.875 65.125,46.281 67.063,51.625 65,59.625 64.688,59.625 64.25,58.688 63.813,57.438 
		62.813,56.438 61.563,55.688 60.438,55.25 59.438,55.25 	"/>
	
		<linearGradient id="SVGID_3_" gradientUnits="userSpaceOnUse" x1="48.3364" y1="69.2754" x2="47.8047" y2="25.2498" gradientTransform="matrix(1 0 0 -1 -0.02 95.0947)">
		<stop  offset="0" style="stop-color:#FFFFFF"/>
		<stop  offset="0.9909" style="stop-color:#BBBDBF"/>
	</linearGradient>
	<polygon fill="url(#SVGID_3_)" points="57.125,56.25 55.5,69.25 57.125,69.688 58.938,69.688 60.688,68.938 61.938,67.563 
		63.125,66.125 63.438,65.063 64.688,65.313 68.438,52.688 70.688,52 68.938,47.438 68.688,45.188 68.375,42.438 68.188,40.438 
		67.688,38.438 66.625,36.188 65.25,33.75 63.938,31.875 62.313,30.313 60.438,28.625 57.563,26.813 54.188,25.375 51.438,24.875 
		45.375,24.875 42.688,25.313 40.125,26.188 38.25,27.063 36.125,28.375 34.188,30.063 32.688,31.75 31.313,33.375 30.125,35.313 
		29.063,37.438 28.313,39.688 27.75,41.688 27.438,42.813 27.438,44.625 27.438,46.313 27.438,46.938 25.313,51.938 27.5,52.5 
		31.438,65.375 32.938,65.063 33.063,66.313 34.125,67.625 36,69.125 38.25,69.688 40.375,69.375 39.25,56.125 38.25,56.125 
		36.813,56.375 35.563,56.938 34.438,57.75 33.563,58.688 32.938,59.563 32.688,60.438 32.25,60.438 29.938,52.313 31.688,48 
		31.563,46.25 31.688,44.625 31.938,42.875 32.5,41.063 33.063,39.5 33.75,38 34.563,36.375 35.938,34.438 37.625,33 39.313,31.813 
		41.813,30.313 43.938,29.5 51.688,29.313 54.063,30.188 56.75,31.563 58.813,33.25 60.875,35.625 62.25,37.813 63.5,40.625 
		63.938,42.188 64.188,43.938 64.188,45.875 64.125,47.281 66.063,52.625 64,60.625 63.688,60.625 63.25,59.688 62.813,58.438 
		61.813,57.438 60.563,56.688 59.438,56.25 58.438,56.25 	"/>
</g>
</svg>
