<?xml version="1.0" encoding="utf-8"?>
<!-- Generator: Adobe Illustrator 15.0.0, SVG Export Plug-In . SVG Version: 6.00 Build 0)  -->
<!DOCTYPE svg PUBLIC "-//W3C//DTD SVG 1.1//EN" "http://www.w3.org/Graphics/SVG/1.1/DTD/svg11.dtd">
<svg version="1.1" id="Слой_1" xmlns="http://www.w3.org/2000/svg" xmlns:xlink="http://www.w3.org/1999/xlink" x="0px" y="0px"
	 width="50px" height="50px" viewBox="0 0 50 50" enable-background="new 0 0 50 50" xml:space="preserve">
<path opacity="0.4" d="M26,49c-2.206,0-4-1.794-4-4c0,2.206-1.794,4-4,4H9c-2.206,0-4-1.794-4-4v-3H4c-2.206,0-4-1.794-4-4v-9
	c0-2.205,1.794-4,4-4h42c2.206,0,4,1.795,4,4v9c0,2.206-1.794,4-4,4h-1v3c0,2.206-1.794,4-4,4H26z"/>
<path opacity="0.5" d="M46,25H4c-1.657,0-3,1.344-3,3v10c0,1.657,1.343,3,3,3h2v4c0,1.657,1.343,3,3,3h9c1.657,0,3-1.343,3-3v-4h2v4
	c0,1.657,1.343,3,3,3h15c1.657,0,3-1.343,3-3v-4h2c1.657,0,3-1.343,3-3V28C49,26.344,47.657,25,46,25z"/>
<path fill="#FFFF76" d="M9,47c-1.103,0-2-0.897-2-2v-5c0-1.103,0.897-2,2-2h9c1.103,0,2,0.897,2,2v5c0,1.103-0.897,2-2,2H9z"/>
<path fill="#FFFF76" d="M26,47c-1.103,0-2-0.897-2-2v-5c0-1.103,0.897-2,2-2h15c1.103,0,2,0.897,2,2v5c0,1.103-0.897,2-2,2H26z"/>
<path fill="#097013" d="M4,40c-1.103,0-2-0.897-2-2V28c0-1.104,0.897-2,2-2h42c1.103,0,2,0.896,2,2v10c0,1.103-0.897,2-2,2H4z"/>
<path d="M27,46.958h-1V40h1V46.958z M30,40h-1v6.958h1V40z M33,40h-1v6.958h1V40z M36,40h-1v6.958h1V40z M39,40h-1v6.958h1V40z
	 M42,40h-1v6.958h1V40z M18,40h-1v6.958h1V40z M15,40h-1v6.958h1V40z M12,40h-1v6.958h1V40z M9,40H8v6.958h1V40z"/>
<path opacity="0.6" d="M42,32.5c0,1.933-1.567,3.5-3.5,3.5S35,34.433,35,32.5s1.567-3.5,3.5-3.5S42,30.567,42,32.5z M28.5,29
	c-1.934,0-3.5,1.567-3.5,3.5s1.566,3.5,3.5,3.5s3.5-1.567,3.5-3.5S30.434,29,28.5,29z M18.5,29c-1.933,0-3.5,1.567-3.5,3.5
	s1.567,3.5,3.5,3.5s3.5-1.567,3.5-3.5S20.433,29,18.5,29z M8.5,29C6.567,29,5,30.567,5,32.5S6.567,36,8.5,36s3.5-1.567,3.5-3.5
	S10.433,29,8.5,29z"/>
<circle fill="#46ED2E" cx="28.5" cy="32.5" r="2.5"/>
<circle fill="#FF2E2E" cx="38.5" cy="32.5" r="2.5"/>
<radialGradient id="SVGID_1_" cx="9.417" cy="28.916" r="28.8983" gradientTransform="matrix(0.9002 -0.4354 0.2633 0.5443 -6.6731 17.2757)" gradientUnits="userSpaceOnUse">
	<stop  offset="0.0848" style="stop-color:#FFFFFF;stop-opacity:0.7"/>
	<stop  offset="1" style="stop-color:#FFFFFF;stop-opacity:0"/>
</radialGradient>
<path fill="url(#SVGID_1_)" d="M38,27c3.933,0,7.658,0.76,11,2.112V28c0-1.656-1.343-3-3-3H4c-1.657,0-3,1.344-3,3v10
	c0,1.657,1.343,3,3,3h2v4c0,1.657,1.343,3,3,3h3.064C12.957,36.273,24.224,27,38,27z"/>
</svg>
