<?xml version="1.0" encoding="UTF-8"?>
<!DOCTYPE svg PUBLIC "-//W3C//DTD SVG 1.1 Tiny//EN" "http://www.w3.org/Graphics/SVG/1.1/DTD/svg11-tiny.dtd">
<svg xmlns="http://www.w3.org/2000/svg" baseProfile="tiny" height="40" version="1.0" width="40" x="0" y="0">
<defs/>
<path d="M 1.391234,38.70888 C 6.6572031,37.524926 12.362096,30.429431 15.809327,26.267329" style="fill:none;fill-opacity:0.75000000000000000;fill-rule:evenodd;stroke:#00ff00;stroke-width:2.61436534000000000;stroke-linecap:round;stroke-linejoin:round;stroke-dasharray:2.61436528999999980, 2.61436528999999980;stroke-dashoffset:0"/>
<path d="M 16.198841,18.139085 C 15.237167,17.367595 14.078051,17.185857 13.594893,17.735247 L 9.2502141,22.675509 L 8.9683971,22.995958 C 8.9239481,23.046502 8.9649041,23.13821 8.9349261,23.196828 C 7.0332571,25.848423 7.4320391,29.460445 10.064592,31.572376 C 12.697143,33.684307 16.519022,33.458253 18.925238,31.211425 C 18.980513,31.173101 19.082164,31.195798 19.126613,31.145253 L 19.40843,30.824804 L 23.753109,25.884543 C 24.236267,25.335152 23.848706,24.276091 22.887032,23.504599 L 16.198841,18.139085 z" style="font-size:12px;fill:#008080;fill-rule:evenodd;stroke:#00ff00;stroke-width:2.61436534000000000;stroke-linecap:round;stroke-linejoin:round"/>
<path d="M 38.776869,1.3232451 C 33.5109,2.5071981 27.806005,9.6026941 24.358775,13.764796" style="fill:none;fill-opacity:0.75000000000000000;fill-rule:evenodd;stroke:#00ff00;stroke-width:2.61436534000000000;stroke-linecap:round;stroke-linejoin:round;stroke-dasharray:2.61436528999999980, 2.61436528999999980;stroke-dashoffset:0"/>
<path d="M 23.969262,21.893039 C 24.930935,22.664529 26.090051,22.846267 26.573209,22.296877 L 30.917888,17.356616 L 31.199705,17.036167 C 31.244154,16.985623 31.203198,16.893914 31.233176,16.835296 C 33.134845,14.183702 32.736063,10.571679 30.10351,8.4597481 C 27.470959,6.3478171 23.64908,6.5738711 21.242866,8.8207001 C 21.18759,8.8590231 21.085939,8.8363271 21.041488,8.8868711 L 20.759672,9.2073201 L 16.414994,14.147582 C 15.931836,14.696972 16.319396,15.756034 17.281071,16.527525 L 23.969262,21.893039 z" style="font-size:12px;fill:#008000;fill-rule:evenodd;stroke:#00ff00;stroke-width:2.61436534000000000;stroke-linecap:round;stroke-linejoin:round"/>
</svg>
