<?xml version="1.0" encoding="UTF-8"?>
<!DOCTYPE svg PUBLIC "-//W3C//DTD SVG 1.1 Tiny//EN" "http://www.w3.org/Graphics/SVG/1.1/DTD/svg11-tiny.dtd">
<svg xmlns="http://www.w3.org/2000/svg" xmlns:xlink="http://www.w3.org/1999/xlink" baseProfile="tiny" height="60.0000000" version="1.0" width="60.0000000" x="0" y="0">
<defs/>
<path d="M 4.1454612,56.062859 C 11.874235,54.247455 20.247211,43.367641 25.306652,36.985720" style="fill:none;fill-opacity:0.75000000;fill-rule:evenodd;stroke:#333333;stroke-width:3.9219476;stroke-linecap:round;stroke-linejoin:round;stroke-dasharray:3.9219476,3.9219476;stroke-dashoffset:0.0000000;" transform="matrix(0.796798,0.000000,0.000000,0.796798,0.462804,11.00819)"/>
<path d="M 35.036480,17.093221 L 25.633406,28.263617 M 41.585421,22.866403 L 32.322691,33.870076" style="fill:none;fill-opacity:0.75000000;fill-rule:evenodd;stroke:#333333;stroke-width:3.1375581;stroke-linecap:round;stroke-dasharray:none;" transform="matrix(0.796798,0.000000,0.000000,0.796798,0.462804,11.00819)"/>
<path d="M 25.878336,24.522351 C 24.466902,23.339393 22.765688,23.060727 22.056566,23.903130 L 15.679954,31.478235 L 15.266336,31.969593 C 15.201098,32.047094 15.261209,32.187714 15.217210,32.277596 C 12.426163,36.343393 13.011448,41.881856 16.875201,45.120166 C 20.738952,48.358476 26.348261,48.011859 29.879821,44.566704 C 29.960949,44.507942 30.110140,44.542743 30.175378,44.465241 L 30.588996,43.973884 L 36.965607,36.398778 C 37.674730,35.556375 37.105914,33.932472 35.694481,32.749513 L 25.878336,24.522351 z " style="font-size:12.000000;fill:#b3b3b3;fill-rule:evenodd;stroke:#333333;stroke-width:3.9219476;stroke-linecap:round;stroke-linejoin:round;fill-opacity:1.0000000;stroke-dasharray:none;" transform="matrix(0.796798,0.000000,0.000000,0.796798,0.462804,11.00819)"/>
</svg>
